<?xml version="1.0" encoding="utf-8"?>
<!-- Generator: Adobe Illustrator 27.4.1, SVG Export Plug-In . SVG Version: 6.00 Build 0)  -->
<svg version="1.1" id="Layer_1" xmlns="http://www.w3.org/2000/svg" xmlns:xlink="http://www.w3.org/1999/xlink" x="0px" y="0px"
	 viewBox="0 0 341.6 333.8" style="enable-background:new 0 0 341.6 333.8;" xml:space="preserve">
<style type="text/css">
	.st0{fill-rule:evenodd;clip-rule:evenodd;fill:#FF6D00;}
	.st1{fill-rule:evenodd;clip-rule:evenodd;fill:url(#SVGID_1_);}
	.st2{fill-rule:evenodd;clip-rule:evenodd;fill:#FF7517;}
	.st3{fill-rule:evenodd;clip-rule:evenodd;fill:url(#SVGID_00000177479272526494388250000006768015955080058555_);}
	.st4{fill-rule:evenodd;clip-rule:evenodd;fill:#FF941F;}
</style>
<g id="Layer_2_00000100365642005614726660000015006013827354900096_">
	<g id="Layer_1-2">
		<path class="st0" d="M0,311c115.4-38.3,216.6-104.4,259.9-170.4c13-19.7,19.9-39.4,21.5-57.7c1.7-40.8-28.9-55.5-66.2-37.9
			C245.7,101.2,108.9,250,0,311z"/>
		<path class="st0" d="M298.9,221.6c-16.5,51.7-117.1,98-251.9,108.1c54.9,4.7,162.9,11.2,231.7-19.6c10.3-4.5,19.9-10.4,28.6-17.6
			C336.2,267.1,328.8,235.6,298.9,221.6L298.9,221.6z"/>
		
			<linearGradient id="SVGID_1_" gradientUnits="userSpaceOnUse" x1="-104.0837" y1="36.7876" x2="303.9104" y2="217.9795" gradientTransform="matrix(1 0 0 -1 0 336)">
			<stop  offset="0.1452" style="stop-color:#EC3A09"/>
			<stop  offset="0.7383" style="stop-color:#FFA543"/>
		</linearGradient>
		<path class="st1" d="M65,219.5c61.1-3,189.6-29.4,237.6,4.5c22.9,16.1,25.3,49.8,4.6,68.6c45.2-37.8,49-101.5-8.1-138.8
			c-43.2-28.2-110.2-29.6-157.1-25.5c-10.9,0.9-13.4-5.6-7.9-14.9c14.7-24.7,52.7-60.8,87.5-70.4c26.3-7.1,60.7,6,59.8,40
			c4.7-53.7-36.5-94.3-106.6-80C105.9,17,41.6,87.2,19,146C2.8,188.3,12.3,222.1,65,219.5z"/>
		<path class="st0" d="M187.6,229.5c-52.2,38.4-112.9,68.2-173.9,89.3c63.2,0,143.8-12,205.3-41.2
			C280.9,248.2,238.3,192.1,187.6,229.5L187.6,229.5z"/>
		<path class="st2" d="M287.1,243.1c24,2.9,35.3,31.5,20.1,49.5c20.7-18.8,18.3-52.5-4.6-68.6c-1.2-0.8-2.5-1.7-3.7-2.4
			C296.3,229.4,292.3,236.7,287.1,243.1L287.1,243.1z"/>
		<path class="st2" d="M218.8,73.3c18.4-18.6,63.9-16.7,62,15.2c0.3-1.8,0.5-3.7,0.7-5.5C282.3,49,248,35.9,221.7,43
			c-2.2,0.6-4.2,1.3-6.4,2C219.5,52.7,220.5,62.3,218.8,73.3L218.8,73.3z"/>
		
			<linearGradient id="SVGID_00000175298015969720667800000005480573293732512902_" gradientUnits="userSpaceOnUse" x1="-89.5496" y1="43.269" x2="381.8544" y2="252.627" gradientTransform="matrix(1 0 0 -1 0 336)">
			<stop  offset="0.322" style="stop-color:#FF6D00"/>
			<stop  offset="0.5229" style="stop-color:#FFA543"/>
		</linearGradient>
		<path style="fill-rule:evenodd;clip-rule:evenodd;fill:url(#SVGID_00000175298015969720667800000005480573293732512902_);" d="
			M118.9,172.6c-39,3.6-52.4-14.7-35.8-50.2C101.8,82.3,158.6,30,209.8,16.6c19.8-5.1,43.9-4.4,56.5,11C248.7,5.6,217-5.7,174.8,2.9
			C105.9,17,41.6,87.2,19,146c-16.2,42.3-6.8,76.1,46,73.5c61.1-3,189.6-29.4,237.6,4.5c22.9,16.1,25.3,49.8,4.6,68.6
			c15.4-12.9,26-28.8,31-45.6c6.1-32.7-10.1-55.2-39.9-67.7C246.9,157.6,161.4,168.6,118.9,172.6L118.9,172.6z"/>
		<path class="st4" d="M96.7,216.7c66.3-6.9,165.2-21.4,206,7.2c22.9,16.1,25.3,49.8,4.6,68.6c2.2-1.8,4.2-3.5,6.1-5.4
			c19.3-20.5,15.9-51.8-7.5-68.2C258.8,186.9,156.5,207.7,96.7,216.7L96.7,216.7z"/>
		<path class="st4" d="M134.2,113.4c14.7-24.7,52.7-60.8,87.5-70.4c26.3-7.1,60.7,6,59.8,40c0.3-3.1,0.4-6.1,0.4-9.1
			c-2.1-31.1-34.2-43.7-61.6-36.1C186.7,47,147.3,87.4,134.2,113.4L134.2,113.4z"/>
	</g>
</g>
</svg>
